<?xml version="1.0" encoding="iso-8859-1"?>
<!-- Uploaded to: SVG Repo, www.svgrepo.com, Generator: SVG Repo Mixer Tools -->
<svg height="800px" width="800px" version="1.1" id="Capa_1" xmlns="http://www.w3.org/2000/svg" xmlns:xlink="http://www.w3.org/1999/xlink" 
	 viewBox="0 0 26.001 26.001" xml:space="preserve">
<g>
	<path style="fill:#030104;" d="M25.911,17.597c0.229,0.503,0.007,1.096-0.496,1.324l-11,5c-0.131,0.06-0.272,0.09-0.414,0.09
		c-0.099,0-0.198-0.015-0.294-0.044l-13-4c-0.528-0.163-0.824-0.723-0.662-1.25c0.162-0.528,0.723-0.827,1.25-0.662l12.638,3.889
		l10.654-4.843C25.095,16.868,25.684,17.096,25.911,17.597z M13.933,17.944L1.295,14.055c-0.527-0.165-1.087,0.134-1.25,0.662
		c-0.163,0.527,0.134,1.087,0.662,1.25l13,4c0.096,0.029,0.195,0.044,0.294,0.044c0.142,0,0.283-0.03,0.414-0.09l11-5
		c0.503-0.229,0.725-0.821,0.496-1.324c-0.228-0.501-0.816-0.726-1.324-0.496L13.933,17.944z M0.002,11.061
		c-0.021-0.42,0.223-0.808,0.61-0.972l7.301-3.077C9.35,6.406,10.034,5.65,10.034,2.99c0-0.307,0.141-0.598,0.383-0.787
		c0.242-0.19,0.557-0.257,0.856-0.184l12.939,3.188c0.446,0.11,0.761,0.511,0.761,0.971V6.33c0.001,2.958,0.002,4.911-3.621,6.438
		c-2.425,1.022-6.88,3.125-6.924,3.147c-0.134,0.064-0.281,0.096-0.427,0.096c-0.099,0-0.198-0.015-0.294-0.044l-13-4
		C0.305,11.843,0.023,11.481,0.002,11.061z M3.924,10.864l10,3.078c1.112-0.523,4.562-2.136,6.65-3.016
		c2.211-0.932,2.385-1.649,2.397-3.964l-10.99-2.709c-0.193,2.052-0.971,3.624-3.29,4.602L3.924,10.864z"/>
</g>
</svg>